<svg id="Layer_1" enable-background="new 0 0 256 256" height="512" viewBox="0 0 256 256" width="512" xmlns="http://www.w3.org/2000/svg"><path d="m92.12 214.899v-185.798c0-1.713 1.388-3.101 3.101-3.101h-46.101c-2.761 0-5 2.239-5 5v182c0 2.761 2.239 5 5 5h46.101c-1.713 0-3.101-1.388-3.101-3.101z" fill="#ede49d"/><path d="m195.12 26h-46.101c1.713 0 3.101 1.388 3.101 3.101v185.798c0 1.713-1.388 3.101-3.101 3.101h46.101c2.761 0 5-2.239 5-5v-182c0-2.761-2.239-5-5-5z" fill="#d3ba2a"/><path d="m152.12 214.899v-185.798c0-1.713-1.388-3.101-3.101-3.101h-53.798c-1.713 0-3.101 1.388-3.101 3.101v185.798c0 1.713 1.388 3.101 3.101 3.101h53.798c1.713 0 3.101-1.388 3.101-3.101z" fill="#eee045"/><path d="m95.221 26h-46.101c-2.761 0-5 2.239-5 5v19h48v-20.899c0-1.713 1.388-3.101 3.101-3.101z" fill="#ef7f72"/><path d="m200.12 31c0-2.761-2.239-5-5-5h-46.101c1.713 0 3.101 1.388 3.101 3.101v20.899h48z" fill="#e8383b"/><path d="m149.019 26h-53.798c-1.713 0-3.101 1.388-3.101 3.101v20.899h60v-20.899c0-1.713-1.388-3.101-3.101-3.101z" fill="#e95947"/><path d="m195.12 221h-146c-4.411 0-8-3.589-8-8v-182c0-4.411 3.589-8 8-8h146c4.411 0 8 3.589 8 8v182c0 4.411-3.589 8-8 8zm-146-192c-1.103 0-2 .897-2 2v182c0 1.103.897 2 2 2h146c1.103 0 2-.897 2-2v-182c0-1.103-.897-2-2-2z" fill="#1c2d6b"/><path d="m200.12 53h-156c-1.657 0-3-1.343-3-3v-19c0-4.411 3.589-8 8-8h146c4.411 0 8 3.589 8 8v19c0 1.657-1.344 3-3 3zm-153-6h150v-16c0-1.103-.897-2-2-2h-146c-1.103 0-2 .897-2 2z" fill="#1c2d6b"/><path d="m135.26 152.32v77.67c-5.29-.27-9.49-4.64-9.49-9.99v-67.68h.07c.38 2.26 2.34 3.99 4.71 3.99s4.33-1.73 4.71-3.99z" fill="#ef7f72"/><path d="m154.47 152.32v67.68c0 5.37-4.25 9.76-9.57 9.99v-77.67h.08c.38 2.26 2.34 3.99 4.71 3.99s4.33-1.73 4.71-3.99z" fill="#e8383b"/><path d="m144.9 152.32v77.68h-9.64v-77.68h.15c.38 2.26 2.34 3.99 4.71 3.99s4.33-1.73 4.71-3.99z" fill="#e95947"/><path d="m142.219 128.154 2.685 24.166h.072c.38 2.262 2.342 3.987 4.712 3.987s4.332-1.725 4.712-3.987h.072l-8.055-24.166c-.903-2.71-3.44-4.538-6.297-4.538.952-.001 1.798 1.828 2.099 4.538z" fill="#ede49d"/><path d="m140.12 123.615c-2.857 0-5.393 1.828-6.297 4.538l-8.055 24.166h.072c.38 2.262 2.342 3.987 4.712 3.987s4.332-1.725 4.712-3.987h.072l2.685-24.166c.301-2.709 1.146-4.538 2.099-4.538z" fill="#d3ba2a"/><path d="m144.832 152.32h.072l-2.685-24.166c-.301-2.71-1.147-4.538-2.099-4.538s-1.798 1.828-2.099 4.538l-2.685 24.166h.072c.38 2.262 2.342 3.987 4.712 3.987 2.37-.001 4.332-1.726 4.712-3.987z" fill="#eee045"/><path d="m140.12 123.615c2.857 0 5.393 1.828 6.297 4.538l3.271 9.814h-6.379l-1.09-9.814c-.301-2.709-1.147-4.538-2.099-4.538z" fill="#e8383b"/><path d="m138.021 128.154-1.09 9.814h-6.379l3.271-9.814c.903-2.71 3.44-4.538 6.297-4.538-.953-.001-1.798 1.828-2.099 4.538z" fill="#ef7f72"/><path d="m138.021 128.154c.301-2.71 1.147-4.538 2.099-4.538s1.798 1.828 2.099 4.538l1.09 9.814h-6.379z" fill="#e95947"/><g fill="#1c2d6b"><path d="m149.688 159.306c-1.794 0-3.459-.604-4.784-1.637-1.325 1.032-2.99 1.637-4.784 1.637s-3.458-.604-4.784-1.637c-1.325 1.032-2.99 1.637-4.784 1.637-3.605 0-6.687-2.441-7.545-5.886-.266-.648-.31-1.374-.085-2.049l8.055-24.166c1.314-3.942 4.989-6.59 9.143-6.59 4.155 0 7.829 2.648 9.143 6.59l8.055 24.166c.245.736.194 1.532-.13 2.222-.917 3.353-3.955 5.713-7.5 5.713zm-4.856-9.987h.144c1.465 0 2.715 1.058 2.958 2.502.145.86.882 1.484 1.754 1.484.706 0 1.323-.409 1.61-1.021l-7.728-23.182c-.496-1.488-1.882-2.487-3.451-2.487-1.568 0-2.955 1-3.451 2.488l-7.727 23.181c.287.613.904 1.022 1.61 1.022.872 0 1.609-.624 1.754-1.484.243-1.444 1.494-2.502 2.958-2.502h.144c1.465 0 2.715 1.058 2.958 2.502.145.86.882 1.484 1.753 1.484s1.609-.624 1.754-1.484c.245-1.445 1.495-2.503 2.96-2.503z"/><path d="m149.688 140.967h-19.136c-.964 0-1.87-.463-2.434-1.246s-.717-1.788-.413-2.703l3.271-9.813c1.314-3.942 4.989-6.59 9.143-6.59 4.155 0 7.829 2.648 9.143 6.59l3.271 9.813c.305.915.151 1.92-.413 2.703-.562.783-1.468 1.246-2.432 1.246zm-14.974-6h10.812l-1.955-5.865c-.496-1.488-1.882-2.487-3.451-2.487-1.568 0-2.955 1-3.451 2.488z"/><path d="m144.47 233h-8.7c-.227 0-.454-.001-.682-.015-6.899-.352-12.318-6.056-12.318-12.985v-67.68c0-1.657 1.343-3 3-3 1.465 0 2.786 1.058 3.028 2.502.145.862.881 1.487 1.751 1.487s1.606-.625 1.751-1.487c.243-1.444 1.494-2.502 2.958-2.502h.15c1.465 0 2.716 1.058 2.958 2.502.145.862.881 1.487 1.751 1.487s1.606-.625 1.751-1.487c.243-1.444 1.494-2.502 2.958-2.502h.15c1.465 0 2.716 1.058 2.958 2.502.145.862.881 1.487 1.751 1.487s1.606-.625 1.751-1.487c.243-1.444 1.494-2.502 2.958-2.502 1.657 0 3.07 1.343 3.07 3v67.68c0 6.981-5.464 12.686-12.44 12.987-.124.011-.331.013-.554.013zm-8.7-6h8.7c.077 0 .149.002.222-.002 3.835-.167 6.778-3.239 6.778-6.998v-60.894c-.573.133-1.169.204-1.78.204-1.795 0-3.459-.605-4.785-1.639-1.325 1.034-2.99 1.639-4.785 1.639s-3.46-.605-4.785-1.64c-1.325 1.034-2.99 1.64-4.785 1.64-.611 0-1.207-.07-1.78-.204v60.894c0 3.732 2.918 6.804 6.643 6.994.132.008.244.006.357.006z"/></g><path d="m163.97 152.32v77.67c-5.29-.27-9.5-4.64-9.5-9.99v-67.68h.07c.38 2.26 2.35 3.99 4.72 3.99s4.33-1.73 4.71-3.99z" fill="#a4d4a0"/><path d="m183.18 152.32v67.68c0 5.37-4.25 9.76-9.57 9.99v-77.67h.07c.38 2.26 2.34 3.99 4.71 3.99s4.33-1.73 4.71-3.99z" fill="#419b46"/><path d="m173.61 152.32v77.68h-9.64v-77.68h.14c.38 2.26 2.34 3.99 4.71 3.99s4.34-1.73 4.72-3.99z" fill="#65bc49"/><path d="m170.923 128.154 2.685 24.166h.072c.38 2.262 2.342 3.987 4.712 3.987s4.332-1.725 4.712-3.987h.072l-8.055-24.166c-.903-2.71-3.44-4.538-6.297-4.538.952-.001 1.798 1.828 2.099 4.538z" fill="#ede49d"/><path d="m168.824 123.615c-2.857 0-5.393 1.828-6.297 4.538l-8.055 24.166h.072c.38 2.262 2.342 3.987 4.712 3.987s4.332-1.725 4.712-3.987h.072l2.685-24.166c.301-2.709 1.147-4.538 2.099-4.538z" fill="#d3ba2a"/><path d="m173.536 152.32h.072l-2.685-24.166c-.301-2.71-1.147-4.538-2.099-4.538s-1.798 1.828-2.099 4.538l-2.685 24.166h.072c.38 2.262 2.342 3.987 4.712 3.987 2.37-.001 4.332-1.726 4.712-3.987z" fill="#eee045"/><path d="m168.824 123.615c2.857 0 5.393 1.828 6.297 4.538l3.271 9.814h-6.379l-1.09-9.814c-.301-2.709-1.147-4.538-2.099-4.538z" fill="#419b46"/><path d="m166.725 128.154-1.09 9.814h-6.379l3.271-9.814c.903-2.71 3.44-4.538 6.297-4.538-.952-.001-1.798 1.828-2.099 4.538z" fill="#a4d4a0"/><path d="m166.725 128.154c.301-2.71 1.147-4.538 2.099-4.538s1.798 1.828 2.099 4.538l1.09 9.814h-6.379z" fill="#65bc49"/><path d="m178.392 159.306c-1.794 0-3.459-.604-4.784-1.637-1.325 1.032-2.99 1.637-4.784 1.637s-3.458-.604-4.784-1.637c-1.325 1.032-2.99 1.637-4.784 1.637-3.605 0-6.687-2.441-7.545-5.886-.266-.648-.31-1.374-.085-2.049l8.056-24.166c1.314-3.941 4.988-6.59 9.143-6.59s7.829 2.648 9.143 6.59l8.056 24.166c.246.737.194 1.534-.131 2.225-.919 3.352-3.957 5.71-7.501 5.71zm-4.856-9.987h.144c1.465 0 2.715 1.058 2.958 2.502.145.86.882 1.484 1.754 1.484.706 0 1.324-.409 1.61-1.022l-7.728-23.182c-.496-1.488-1.882-2.487-3.451-2.487-1.568 0-2.955 1-3.45 2.487l-7.728 23.182c.287.613.904 1.022 1.61 1.022.872 0 1.609-.624 1.754-1.484.243-1.444 1.494-2.502 2.958-2.502h.144c1.465 0 2.715 1.058 2.958 2.502.145.86.882 1.484 1.753 1.484s1.609-.624 1.754-1.484c.245-1.444 1.495-2.502 2.96-2.502z" fill="#1c2d6b"/><path d="m178.392 140.967h-19.136c-.964 0-1.87-.463-2.434-1.246-.564-.782-.717-1.788-.413-2.703l3.271-9.813c1.314-3.941 4.988-6.59 9.143-6.59s7.829 2.648 9.143 6.59l3.271 9.813c.305.915.151 1.92-.413 2.703-.562.783-1.468 1.246-2.432 1.246zm-14.974-6h10.811l-1.955-5.865c-.496-1.488-1.882-2.487-3.451-2.487-1.568 0-2.955 1-3.45 2.487z" fill="#1c2d6b"/><path d="m173.18 233h-8.71c-.232 0-.464-.002-.683-.015-6.894-.352-12.317-6.056-12.317-12.985v-67.68c0-1.657 1.343-3 3-3 1.465 0 2.786 1.058 3.029 2.502.143.848.9 1.487 1.761 1.487.87 0 1.606-.625 1.751-1.487.243-1.444 1.494-2.502 2.958-2.502h.14c1.465 0 2.715 1.058 2.958 2.502.145.862.882 1.488 1.751 1.488.862 0 1.619-.639 1.762-1.487.243-1.444 1.494-2.502 2.958-2.502h.14c1.465 0 2.716 1.058 2.958 2.502.145.862.881 1.487 1.751 1.487s1.606-.625 1.751-1.488c.243-1.444 1.494-2.502 2.958-2.502 1.657 0 3.08 1.343 3.08 3v67.68c0 6.981-5.465 12.686-12.441 12.987-.125.011-.332.013-.555.013zm-8.71-6h8.71c.077 0 .149.002.221-.002 3.836-.167 6.779-3.239 6.779-6.998v-60.896c-.576.135-1.175.206-1.79.206-1.793 0-3.457-.604-4.782-1.637-1.327 1.032-2.992 1.637-4.789 1.637-1.792 0-3.456-.604-4.78-1.636-1.325 1.032-2.988 1.636-4.78 1.636-.615 0-1.214-.071-1.79-.206v60.896c0 3.731 2.922 6.804 6.653 6.994.132.008.239.006.348.006z" fill="#1c2d6b"/><path d="m192.67 152.32v77.67c-5.3-.27-9.49-4.64-9.49-9.99v-67.68h.07c.38 2.26 2.34 3.99 4.71 3.99s4.33-1.73 4.71-3.99z" fill="#89aadb"/><path d="m211.88 152.32v67.68c0 5.37-4.25 9.76-9.57 9.99v-77.67h.07c.38 2.26 2.35 3.99 4.72 3.99s4.33-1.73 4.71-3.99z" fill="#4b67b0"/><path d="m202.31 152.32v77.68h-9.64v-77.68h.15c.38 2.26 2.34 3.99 4.71 3.99s4.33-1.73 4.71-3.99z" fill="#6287c5"/><path d="m199.627 128.154 2.685 24.166h.072c.38 2.262 2.342 3.987 4.712 3.987s4.332-1.725 4.712-3.987h.072l-8.055-24.166c-.903-2.71-3.44-4.538-6.297-4.538.952-.001 1.798 1.828 2.099 4.538z" fill="#ede49d"/><path d="m197.528 123.615c-2.857 0-5.393 1.828-6.297 4.538l-8.055 24.166h.072c.38 2.262 2.342 3.987 4.712 3.987s4.332-1.725 4.712-3.987h.072l2.685-24.166c.301-2.709 1.147-4.538 2.099-4.538z" fill="#d3ba2a"/><path d="m202.24 152.32h.072l-2.685-24.166c-.301-2.71-1.147-4.538-2.099-4.538s-1.798 1.828-2.099 4.538l-2.685 24.166h.072c.38 2.262 2.342 3.987 4.712 3.987s4.332-1.726 4.712-3.987z" fill="#eee045"/><path d="m197.528 123.615c2.857 0 5.393 1.828 6.297 4.538l3.271 9.814h-6.379l-1.09-9.814c-.301-2.709-1.147-4.538-2.099-4.538z" fill="#4b67b0"/><path d="m195.429 128.154-1.09 9.814h-6.379l3.271-9.814c.903-2.71 3.44-4.538 6.297-4.538-.952-.001-1.798 1.828-2.099 4.538z" fill="#89aadb"/><path d="m195.429 128.154c.301-2.71 1.147-4.538 2.099-4.538s1.798 1.828 2.099 4.538l1.09 9.814h-6.379z" fill="#6287c5"/><path d="m207.096 159.306c-1.794 0-3.459-.604-4.784-1.637-1.325 1.032-2.99 1.637-4.784 1.637s-3.459-.604-4.784-1.637c-1.325 1.032-2.99 1.637-4.784 1.637-3.606 0-6.688-2.442-7.546-5.888-.265-.647-.309-1.372-.084-2.047l8.055-24.166c1.314-3.941 4.988-6.59 9.143-6.59s7.829 2.648 9.143 6.59l8.056 24.166c.246.737.194 1.534-.131 2.225-.918 3.352-3.956 5.71-7.5 5.71zm-4.856-9.987h.144c1.465 0 2.715 1.058 2.958 2.502.145.86.882 1.484 1.754 1.484.706 0 1.324-.409 1.61-1.022l-7.728-23.182c-.496-1.488-1.882-2.487-3.45-2.487s-2.955 1-3.451 2.487l-7.728 23.182c.287.612.904 1.021 1.61 1.021.872 0 1.609-.624 1.754-1.484.243-1.444 1.494-2.502 2.958-2.502h.144c1.465 0 2.715 1.058 2.958 2.502.145.86.882 1.484 1.754 1.484s1.609-.624 1.753-1.484c.245-1.443 1.495-2.501 2.96-2.501z" fill="#1c2d6b"/><path d="m207.096 140.967h-19.136c-.964 0-1.87-.463-2.434-1.246-.564-.782-.717-1.788-.413-2.703l3.271-9.813c1.314-3.941 4.988-6.59 9.143-6.59s7.829 2.648 9.143 6.59l3.271 9.813c.305.915.151 1.92-.413 2.703-.562.783-1.467 1.246-2.432 1.246zm-14.973-6h10.811l-1.955-5.865c-.496-1.488-1.882-2.487-3.45-2.487s-2.955 1-3.451 2.487z" fill="#1c2d6b"/><path d="m201.88 233h-8.7c-.228 0-.455-.001-.683-.015-6.898-.352-12.317-6.056-12.317-12.985v-67.68c0-1.657 1.343-3 3-3 1.465 0 2.786 1.058 3.028 2.502.145.862.881 1.487 1.751 1.487s1.606-.625 1.751-1.487c.243-1.444 1.494-2.502 2.958-2.502h.15c1.465 0 2.715 1.058 2.958 2.502.145.862.882 1.488 1.752 1.488s1.606-.625 1.751-1.488c.243-1.444 1.494-2.502 2.958-2.502h.14c1.465 0 2.716 1.058 2.958 2.502.143.848.9 1.487 1.762 1.487.87 0 1.606-.625 1.751-1.487.243-1.444 1.494-2.502 2.958-2.502 1.657 0 3.07 1.343 3.07 3v67.68c0 6.981-5.464 12.686-12.44 12.987-.125.011-.333.013-.556.013zm-8.7-6h8.7c.077 0 .149.002.222-.002 3.835-.167 6.778-3.239 6.778-6.998v-60.894c-.573.133-1.169.204-1.78.204-1.796 0-3.462-.604-4.789-1.637-1.325 1.032-2.988 1.637-4.781 1.637-1.795 0-3.46-.606-4.785-1.64-1.325 1.034-2.99 1.64-4.785 1.64-.611 0-1.207-.07-1.78-.204v60.894c0 3.732 2.917 6.804 6.643 6.994.131.008.244.006.357.006z" fill="#1c2d6b"/><path d="m180.526 68h-36.314c1.703 0 3.084 1.381 3.084 3.084v30.483c0 1.703-1.381 3.084-3.084 3.084h36.314c2.761 0 5-2.239 5-5v-26.651c0-2.761-2.239-5-5-5z" fill="#419b46"/><path d="m100.35 101.567v-30.483c0-1.703 1.381-3.084 3.084-3.084h-36.314c-2.761 0-5 2.239-5 5v26.651c0 2.761 2.239 5 5 5h36.314c-1.704 0-3.084-1.381-3.084-3.084z" fill="#a4d4a0"/><path d="m147.296 101.567v-30.483c0-1.703-1.381-3.084-3.084-3.084h-40.778c-1.703 0-3.084 1.381-3.084 3.084v30.483c0 1.703 1.381 3.084 3.084 3.084h40.778c1.703 0 3.084-1.381 3.084-3.084z" fill="#65bc49"/><path d="m180.525 107.651h-113.405c-4.411 0-8-3.589-8-8v-26.651c0-4.411 3.589-8 8-8h113.406c4.411 0 8 3.589 8 8v26.651c-.001 4.411-3.589 8-8.001 8zm-113.405-36.651c-1.103 0-2 .897-2 2v26.651c0 1.103.897 2 2 2h113.406c1.103 0 2-.897 2-2v-26.651c0-1.103-.897-2-2-2z" fill="#1c2d6b"/></svg>